<svg width="1200" height="500" viewBox="0 0 1200 500" fill="none" xmlns="http://www.w3.org/2000/svg">
<g clip-path="url(#clip0_106_135)">
<path d="M1200 0H0V500H1200V0Z" fill="#F8F8F6"/>
<path d="M1200 300C1149.5 289.2 1099.1 278.4 1053 254.6C1006.9 230.8 965.3 194.1 941.1 149.5C916.8 104.9 909.9 52.5 903 0H1200V300Z" fill="url(#paint0_linear_106_135)"/>
<path d="M0 201C49.5 214.2 99 227.3 143.5 251.5C188 275.6 227.6 310.7 252.9 354C278.1 397.3 289.1 448.6 300 500H0V201Z" fill="url(#paint1_linear_106_135)"/>
</g>
<defs>
<linearGradient id="paint0_linear_106_135" x1="1051.5" y1="0" x2="1051.5" y2="300" gradientUnits="userSpaceOnUse">
<stop offset="0.39" stop-color="#EB4C1A"/>
<stop offset="0.85" stop-color="#FFA082"/>
</linearGradient>
<linearGradient id="paint1_linear_106_135" x1="150" y1="201" x2="150" y2="500" gradientUnits="userSpaceOnUse">
<stop offset="0.39" stop-color="#EB4C1A"/>
<stop offset="0.85" stop-color="#FFA082"/>
</linearGradient>
<clipPath id="clip0_106_135">
<rect width="1200" height="500" fill="white"/>
</clipPath>
</defs>
</svg>
